<svg xmlns="http://www.w3.org/2000/svg" viewBox="0 0 174.84 120.13"><defs><style>.cls-1{fill:#192930;}.cls-2{fill:#4a7b9d;}.cls-3{fill:#2d4b5b;}.cls-4{fill:#79c6e8;}</style></defs><g id="svans"><path class="cls-1" d="M234.7,329.1c-5.79-.42-9.14-2.8-10.67-6.65.18-5.18,2-8.52,5.34-10.2,2,1.71,2.39,4.31,2.2,7.28,2.72-1.29,3.83-3.67,3.13-7.28-.73-3.3-2.47-5.27-5.33-5.76-4.78.33-7.5,1.55-8.44,3.55a15.18,15.18,0,0,0-4,9.49c-.59,2.58.65,8.91,3.1,12.68a20.57,20.57,0,0,0,8.42,6.2c2.4,1,10.65,0,10.65,0v-9.75Z" transform="translate(-216.79 -277.19)"/><path class="cls-2" d="M225,317.15a10.36,10.36,0,0,1,4.36-4.9c.58-.15,1.08,7.05,2.2,7.28s3.27-2.22,3.32-4.73c.18-5-1.9-8.1-5.52-8.31a10.05,10.05,0,0,0-7.82,2.62c-2.51,2.53-4.65,7.33-4.34,8.16S224.19,319.63,225,317.15Z" transform="translate(-216.79 -277.19)"/></g><g id="ben"><polygon class="cls-1" points="60 101.62 57.34 115.36 74.63 115.36 77.74 105.61 60 101.62"/><polygon class="cls-3" points="58.76 120.13 63.11 101.29 31.95 78.83 38.47 120.13 58.76 120.13"/><polygon class="cls-1" points="143.35 86.17 136.7 115.4 122.51 115.4 127.15 97.65 143.35 86.17"/><polygon class="cls-3" points="102.11 104.83 102.11 120.13 121.39 120.13 129.38 96.85 102.11 104.83"/></g><g id="kropp"><polygon class="cls-1" points="133.93 8.13 165.65 6.8 155.23 22.1 133.93 8.13"/><path class="cls-2" d="M379.1,325.6c0-20.76-6-35.75-41.31-44.2s-68.31-3.87-85.5,10.87-22.89,47.81-6.52,67.39c9.32,12.09,25.07,19.6,46.37,23.19,16.23,1.45,34.59-1,48.55-4.35S379.1,346.37,379.1,325.6Z" transform="translate(-216.79 -277.19)"/></g><g id="tryne"><path class="cls-2" d="M371.39,322.45c6.66,1,17.83,3.22,19.4,8.43s-.46,18.56-7.1,26.6-15.41,2.95-22.31,2.22C358.05,347.34,361.44,334.92,371.39,322.45Z" transform="translate(-216.79 -277.19)"/><ellipse class="cls-4" cx="381.74" cy="344.37" rx="16.61" ry="8.65" transform="matrix(0.34, -0.94, 0.94, 0.34, -288.58, 309.32)"/><ellipse class="cls-1" cx="380.57" cy="345.7" rx="3.1" ry="1.57" transform="translate(-290.6 309.1) rotate(-70.15)"/><ellipse class="cls-1" cx="385.89" cy="344.09" rx="2.32" ry="1.17" transform="translate(-285.57 313.04) rotate(-70.15)"/><circle cx="134.36" cy="50.25" r="4.99"/></g><g id="Hål"><rect class="cls-1" x="61.11" y="4.91" width="48.99" height="7.09" rx="3.55"/></g><g id="öron"><path class="cls-3" d="M364.25,311.15S345,291.48,340.3,288.09s-17.13,13.6-10.63,27.94Z" transform="translate(-216.79 -277.19)"/></g></svg>